<?xml version="1.0" encoding="utf-8"?>
<!-- Svg Vector Icons : http://www.onlinewebfonts.com/icon -->
<!DOCTYPE svg PUBLIC "-//W3C//DTD SVG 1.1//EN" "http://www.w3.org/Graphics/SVG/1.1/DTD/svg11.dtd">
<svg version="1.1" xmlns="http://www.w3.org/2000/svg" xmlns:xlink="http://www.w3.org/1999/xlink" x="0px" y="0px" viewBox="0 0 1000 1000" enable-background="new 0 0 1000 1000" xml:space="preserve">
<metadata> Svg Vector Icons : http://www.onlinewebfonts.com/icon </metadata>
<g><g><path d="M759.3,187.8c-18.3-13.2-43.7-9-56.8,9.2c-13.2,18.2-9.1,43.7,9.2,56.8C856.2,358,903,549.5,823,709c-43.3,86.4-117.7,150.7-209.4,181.1c-91.7,30.5-189.7,23.4-276.1-19.9c-86.3-43.3-150.7-117.7-181.1-209.3c-30.4-91.7-23.3-189.8,20-276.1c52.6-105,153.5-178.1,269.7-195.6c0.8-0.1,1.5-0.4,2.2-0.6L450,269c0.2,8.9,5.8,16.8,14,20.1c8.3,3.2,17.8,1.2,23.9-5.3L603.7,163c8.4-8.8,8.1-22.7-0.7-31.1L482.2,16.1c-6.4-6.2-15.9-7.8-24.1-4.2c-2.7,1.2-5.1,2.9-7,4.9c-3.9,4.1-6.2,9.8-6.1,15.7l1.6,76.5c-4.1-0.7-8.3-0.9-12.6-0.3c-142.4,21.5-265.9,111-330.4,239.6C-5.9,566.7,82.7,833.5,301.1,943c63.6,31.9,131.2,47,197.9,47c162.5,0,319.1-89.6,396.8-244.4C993.8,550.1,936.4,315.5,759.3,187.8z"/></g><g></g><g></g><g></g><g></g><g></g><g></g><g></g><g></g><g></g><g></g><g></g><g></g><g></g><g></g><g></g></g>
</svg>